<svg width="129" height="46" viewBox="0 0 129 46" fill="none" xmlns="http://www.w3.org/2000/svg">
<path d="M0 0H10.8825C14.5974 0 17.3071 0.876191 19.0116 2.62857C20.7161 4.33714 21.5684 6.98762 21.5684 10.58V12.42C21.5684 14.7857 21.175 16.7133 20.3883 18.2029C19.6454 19.6924 18.4872 20.7657 16.9138 21.4229V21.5543C20.4976 22.781 22.2895 25.979 22.2895 31.1486V35.0914C22.2895 38.64 21.3498 41.3562 19.4705 43.24C17.6349 45.08 14.9252 46 11.3414 46H0V0ZM10.0303 18.7286C11.4725 18.7286 12.5433 18.3562 13.2426 17.6114C13.9856 16.8667 14.3571 15.6181 14.3571 13.8657V11.3029C14.3571 9.6381 14.0511 8.43333 13.4393 7.68857C12.8711 6.94381 11.9533 6.57143 10.6859 6.57143H7.21131V18.7286H10.0303ZM11.3414 39.4286C12.6089 39.4286 13.5485 39.1 14.1604 38.4429C14.7723 37.7419 15.0782 36.559 15.0782 34.8943V30.8857C15.0782 28.7829 14.7067 27.3371 13.9637 26.5486C13.2644 25.7162 12.0844 25.3 10.4236 25.3H7.21131V39.4286H11.3414Z" fill="#4B4B4B"/>
<path d="M26.5046 0H37.1905C40.9054 0 43.6151 0.876191 45.3196 2.62857C47.0241 4.33714 47.8763 6.98762 47.8763 10.58V13.4057C47.8763 18.181 46.303 21.2038 43.1562 22.4743V22.6057C44.9044 23.1314 46.1281 24.2048 46.8274 25.8257C47.5704 27.4467 47.9419 29.6152 47.9419 32.3314V40.4143C47.9419 41.7286 47.9856 42.8019 48.073 43.6343C48.1604 44.4229 48.3789 45.2114 48.7286 46H41.3862C41.1239 45.2552 40.9491 44.5543 40.8617 43.8971C40.7743 43.24 40.7306 42.0571 40.7306 40.3486V31.9371C40.7306 29.8343 40.3809 28.3667 39.6817 27.5343C39.0261 26.7019 37.8679 26.2857 36.2071 26.2857H33.716V46H26.5046V0ZM36.3382 19.7143C37.7805 19.7143 38.8513 19.3419 39.5506 18.5971C40.2935 17.8524 40.665 16.6038 40.665 14.8514V11.3029C40.665 9.6381 40.3591 8.43333 39.7472 7.68857C39.1791 6.94381 38.2613 6.57143 36.9938 6.57143H33.716V19.7143H36.3382Z" fill="#4B4B4B"/>
<path d="M58.5176 0H68.2857L75.7592 46H68.5479L67.2368 36.8657V36.9971H59.0421L57.7309 46H51.0441L58.5176 0ZM66.3845 30.7543L63.1722 8.01714H63.0411L59.8943 30.7543H66.3845Z" fill="#4B4B4B"/>
<path d="M79.2578 0H88.3047L95.3194 27.5343H95.4505V0H101.875V46H94.4671L85.8136 12.42H85.6825V46H79.2578V0Z" fill="#4B4B4B"/>
<path d="M107.235 0H118.249C121.832 0 124.52 0.96381 126.312 2.89143C128.104 4.81905 129 7.64476 129 11.3686V34.6314C129 38.3552 128.104 41.181 126.312 43.1086C124.52 45.0362 121.832 46 118.249 46H107.235V0ZM118.117 39.4286C119.298 39.4286 120.193 39.0781 120.805 38.3771C121.461 37.6762 121.789 36.5371 121.789 34.96V11.04C121.789 9.46286 121.461 8.32381 120.805 7.62286C120.193 6.92191 119.298 6.57143 118.117 6.57143H114.446V39.4286H118.117Z" fill="#4B4B4B"/>
</svg>
