<svg width="36" height="29" viewBox="0 0 36 29" fill="none" xmlns="http://www.w3.org/2000/svg">
<path d="M1.2381 13.6689L14.124 0.783215C14.3927 0.514561 14.7571 0.363634 15.137 0.363634C15.517 0.363634 15.8813 0.514561 16.15 0.783215C16.4187 1.05187 16.5696 1.41624 16.5696 1.79617C16.5696 2.1761 16.4187 2.54047 16.15 2.80912L5.70702 13.2501L33.75 13.2501C34.1298 13.2501 34.494 13.4009 34.7625 13.6694C35.031 13.9379 35.1818 14.3021 35.1818 14.6818C35.1818 15.0615 35.031 15.4257 34.7625 15.6942C34.494 15.9627 34.1298 16.1136 33.75 16.1136L5.70702 16.1136L16.15 26.5545C16.4187 26.8232 16.5696 27.1875 16.5696 27.5675C16.5696 27.9474 16.4187 28.3118 16.15 28.5804C15.8813 28.8491 15.517 29 15.137 29C14.7571 29 14.3927 28.8491 14.124 28.5804L1.2381 15.6948C1.10498 15.5618 0.999372 15.4039 0.92732 15.2301C0.855268 15.0563 0.818181 14.87 0.818181 14.6818C0.818181 14.4937 0.855268 14.3074 0.92732 14.1335C0.999372 13.9597 1.10498 13.8018 1.2381 13.6689Z" fill="white"/>
</svg>
